<?xml version="1.0" encoding="UTF-8"?>
<!DOCTYPE svg PUBLIC "-//W3C//DTD SVG 1.1//EN" "http://www.w3.org/Graphics/SVG/1.1/DTD/svg11.dtd">
<svg version="1.1" xmlns="http://www.w3.org/2000/svg" xmlns:xlink="http://www.w3.org/1999/xlink" x="0" y="0" width="612" height="792" viewBox="0, 0, 612, 792">
  <defs>
    <filter id="Shadow_1">
      <feGaussianBlur in="SourceAlpha" stdDeviation="2.5"/>
      <feOffset dx="0" dy="2" result="offsetblur"/>
      <feFlood flood-color="#000000"/>
      <feComposite in2="offsetblur" operator="in"/>
    </filter>
    <radialGradient id="Gradient_1" gradientUnits="userSpaceOnUse" cx="386.167" cy="199.964" r="8.356">
      <stop offset="0" stop-color="#FF8626"/>
      <stop offset="1" stop-color="#E12E00"/>
    </radialGradient>
    <filter id="Shadow_2">
      <feGaussianBlur in="SourceAlpha" stdDeviation="2.5"/>
      <feOffset dx="0" dy="2" result="offsetblur"/>
      <feFlood flood-color="#000000"/>
      <feComposite in2="offsetblur" operator="in"/>
    </filter>
    <radialGradient id="Gradient_2" gradientUnits="userSpaceOnUse" cx="398.755" cy="233.664" r="7.992">
      <stop offset="0" stop-color="#FF8626"/>
      <stop offset="1" stop-color="#E12E00"/>
    </radialGradient>
    <filter id="Shadow_3">
      <feGaussianBlur in="SourceAlpha" stdDeviation="2.5"/>
      <feOffset dx="0" dy="2" result="offsetblur"/>
      <feFlood flood-color="#000000"/>
      <feComposite in2="offsetblur" operator="in"/>
    </filter>
    <radialGradient id="Gradient_3" gradientUnits="userSpaceOnUse" cx="382.779" cy="224.711" r="17.029">
      <stop offset="0" stop-color="#FF8626"/>
      <stop offset="1" stop-color="#E12E00"/>
    </radialGradient>
    <filter id="Shadow_4">
      <feGaussianBlur in="SourceAlpha" stdDeviation="2.5"/>
      <feOffset dx="0" dy="2" result="offsetblur"/>
      <feFlood flood-color="#000000"/>
      <feComposite in2="offsetblur" operator="in"/>
    </filter>
    <radialGradient id="Gradient_4" gradientUnits="userSpaceOnUse" cx="415.722" cy="223.852" r="5.331">
      <stop offset="0" stop-color="#FF8626"/>
      <stop offset="1" stop-color="#E12E00"/>
    </radialGradient>
    <filter id="Shadow_5">
      <feGaussianBlur in="SourceAlpha" stdDeviation="2.5"/>
      <feOffset dx="0" dy="2" result="offsetblur"/>
      <feFlood flood-color="#000000"/>
      <feComposite in2="offsetblur" operator="in"/>
    </filter>
    <radialGradient id="Gradient_5" gradientUnits="userSpaceOnUse" cx="365.943" cy="229.886" r="12.638">
      <stop offset="0" stop-color="#FF8626"/>
      <stop offset="1" stop-color="#E12E00"/>
    </radialGradient>
    <filter id="Shadow_6">
      <feGaussianBlur in="SourceAlpha" stdDeviation="2.5"/>
      <feOffset dx="0" dy="2" result="offsetblur"/>
      <feFlood flood-color="#000000"/>
      <feComposite in2="offsetblur" operator="in"/>
    </filter>
    <radialGradient id="Gradient_6" gradientUnits="userSpaceOnUse" cx="365.597" cy="242.886" r="12.156">
      <stop offset="0" stop-color="#FF8626"/>
      <stop offset="1" stop-color="#E12E00"/>
    </radialGradient>
    <filter id="Shadow_7">
      <feGaussianBlur in="SourceAlpha" stdDeviation="2.5"/>
      <feOffset dx="0" dy="2" result="offsetblur"/>
      <feFlood flood-color="#000000"/>
      <feComposite in2="offsetblur" operator="in"/>
    </filter>
    <radialGradient id="Gradient_7" gradientUnits="userSpaceOnUse" cx="415.849" cy="242.886" r="12.151">
      <stop offset="0" stop-color="#FF8626"/>
      <stop offset="1" stop-color="#E12E00"/>
    </radialGradient>
    <filter id="Shadow_8">
      <feGaussianBlur in="SourceAlpha" stdDeviation="2.5"/>
      <feOffset dx="0" dy="2" result="offsetblur"/>
      <feFlood flood-color="#000000"/>
      <feComposite in2="offsetblur" operator="in"/>
    </filter>
    <radialGradient id="Gradient_8" gradientUnits="userSpaceOnUse" cx="405.601" cy="225.821" r="7.569">
      <stop offset="0" stop-color="#FF8626"/>
      <stop offset="1" stop-color="#E12E00"/>
    </radialGradient>
  </defs>
  <g id="レイヤー_1">
    <g>
      <g>
        <path d="M386.308,194.116 C390.243,194.116 393.578,196.365 394.523,199.4 L394.523,199.402 L392.286,199.402 C392.586,199.92 392.405,200.462 392.405,201.064 C392.405,203.685 389.849,205.813 386.704,205.812 C384.769,205.813 383.055,205.012 382.028,203.78 C382.028,203.78 381.763,203.499 381.503,203.01 L378.105,203.01 C377.894,202.423 377.81,201.821 377.81,201.164 C377.81,197.26 381.606,194.116 386.308,194.116 z" filter="url(#Shadow_1)" fill="rgba(0,0,0,0.65)"/>
        <path d="M394.523,199.4 C393.578,196.365 390.243,194.116 386.308,194.116 C381.606,194.116 377.81,197.26 377.81,201.164 C377.81,201.821 377.894,202.423 378.105,203.01 L381.503,203.01 C381.763,203.499 382.028,203.78 382.028,203.78 C383.055,205.012 384.769,205.813 386.704,205.813 C389.849,205.813 392.405,203.685 392.405,201.064 C392.405,200.462 392.586,199.92 392.287,199.402 L394.523,199.402 z" fill="url(#Gradient_1)"/>
      </g>
      <g>
        <path d="M403.547,224.458 L406.746,229.708 L394.288,241.539 C393.392,242.291 392.161,242.871 390.772,242.871 L390.763,227.507 L403.547,224.458 z" filter="url(#Shadow_2)" fill="rgba(0,0,0,0.65)"/>
        <path d="M394.288,241.539 C393.392,242.291 392.161,242.871 390.772,242.871 L390.763,227.507 L403.547,224.458 L406.747,229.708 L394.288,241.539 z" fill="url(#Gradient_2)"/>
      </g>
      <g>
        <path d="M380.131,205.126 C381.498,205.126 382.712,205.618 383.558,206.399 L390.409,215.132 L397.238,215.132 C400.665,215.116 400.665,218.819 397.238,218.819 L388.816,218.851 C388.008,218.866 387.121,218.525 386.465,217.662 L383.186,213.384 L377,221.226 L385.494,224.922 C388.394,226.082 387.961,228.209 387.961,228.209 L387.961,241.555 C387.961,243.065 386.482,244.297 384.673,244.296 C382.859,244.297 381.386,243.066 381.386,241.555 L381.386,230.867 L367.78,224.585 C366.548,223.897 365.749,222.739 365.749,221.414 C365.749,220.696 365.982,220.021 366.393,219.451 L376.54,206.564 C377.364,205.683 378.675,205.126 380.131,205.126 z" filter="url(#Shadow_3)" fill="rgba(0,0,0,0.65)"/>
        <path d="M383.558,206.399 C382.712,205.618 381.498,205.126 380.131,205.126 C378.675,205.126 377.364,205.683 376.54,206.564 L366.393,219.451 C365.982,220.021 365.749,220.696 365.749,221.414 C365.749,222.739 366.548,223.897 367.78,224.585 L381.386,230.867 L381.386,241.555 C381.386,243.066 382.859,244.297 384.673,244.297 C386.482,244.297 387.961,243.065 387.961,241.555 L387.961,228.209 C387.961,228.209 388.394,226.082 385.494,224.922 L377.001,221.226 L383.186,213.384 L386.465,217.662 C387.121,218.525 388.008,218.866 388.816,218.851 L397.238,218.819 C400.665,218.819 400.665,215.116 397.238,215.132 L390.409,215.132 L383.558,206.399 z" fill="url(#Gradient_3)"/>
      </g>
      <g>
        <path d="M415.341,222.2 C417.864,222.2 419.192,222.63 420.846,223.921 C420.984,224.035 421.053,224.173 421.053,224.358 C421.053,224.687 420.717,224.966 420.312,224.966 C420.206,224.966 420.14,224.966 420.043,224.945 C418.587,224.42 417.666,224.098 415.98,224.098 C414.861,224.098 413.474,224.42 411.873,225.504 L410.391,223.066 C412.241,222.601 413.754,222.2 415.341,222.2 z" filter="url(#Shadow_4)" fill="rgba(0,0,0,0.65)"/>
        <path d="M420.846,223.921 C420.984,224.035 421.053,224.173 421.053,224.358 C421.053,224.687 420.717,224.966 420.312,224.966 C420.206,224.966 420.14,224.966 420.043,224.945 C418.587,224.42 417.666,224.098 415.98,224.098 C414.861,224.098 413.474,224.42 411.873,225.504 L410.391,223.066 C412.241,222.601 413.754,222.2 415.341,222.2 C417.864,222.2 419.192,222.63 420.846,223.921" fill="url(#Gradient_4)"/>
      </g>
      <g>
        <path d="M359.387,224.8 C360.674,224.798 362.25,224.927 364.265,225.795 L378.546,232.342 L378.58,234.973 L362.278,227.502 C361.096,226.999 359.503,226.705 358.377,226.705 C356.7,226.705 355.77,227.027 354.323,227.545 C354.226,227.574 354.151,227.574 354.046,227.574 C353.649,227.574 353.305,227.294 353.305,226.958 C353.305,226.779 353.38,226.635 353.52,226.528 C355.174,225.237 356.864,224.8 359.387,224.8 z" filter="url(#Shadow_5)" fill="rgba(0,0,0,0.65)"/>
        <path d="M364.265,225.795 L378.546,232.342 L378.58,234.973 L362.278,227.502 C361.096,226.999 359.503,226.705 358.377,226.705 C356.7,226.705 355.77,227.027 354.323,227.545 C354.226,227.574 354.151,227.574 354.046,227.574 C353.649,227.574 353.305,227.294 353.305,226.958 C353.305,226.779 353.38,226.635 353.52,226.528 C355.174,225.237 356.864,224.8 359.387,224.8 C360.674,224.798 362.25,224.927 364.265,225.795" fill="url(#Gradient_5)"/>
      </g>
      <g>
        <path d="M365.594,232.773 C372.309,232.773 377.753,237.308 377.753,242.886 C377.753,248.468 372.309,253 365.594,253 C358.883,253 353.441,248.468 353.441,242.886 C353.441,237.308 358.881,232.773 365.594,232.773 z M365.594,235.874 C360.944,235.874 357.18,239.011 357.18,242.886 C357.18,246.761 360.944,249.899 365.594,249.899 C370.244,249.899 374.016,246.761 374.016,242.886 C374.016,239.011 370.244,235.874 365.594,235.874 z" filter="url(#Shadow_6)" fill="rgba(0,0,0,0.65)"/>
        <path d="M365.594,249.899 C370.244,249.899 374.016,246.761 374.016,242.886 C374.016,239.011 370.244,235.874 365.594,235.874 C360.944,235.874 357.18,239.011 357.18,242.886 C357.18,246.761 360.944,249.899 365.594,249.899 M353.441,242.886 C353.441,237.308 358.881,232.773 365.594,232.773 C372.309,232.773 377.753,237.308 377.753,242.886 C377.753,248.468 372.309,253 365.594,253 C358.883,253 353.441,248.468 353.441,242.886" fill="url(#Gradient_6)"/>
      </g>
      <g>
        <path d="M415.851,232.773 C422.557,232.773 428,237.308 428,242.886 C428,248.468 422.56,253 415.851,253 C409.132,253 403.698,248.468 403.698,242.886 C403.698,237.308 409.13,232.773 415.851,232.773 z M415.851,235.874 C411.201,235.874 407.438,239.011 407.438,242.886 C407.438,246.761 411.201,249.899 415.851,249.899 C420.501,249.899 424.282,246.761 424.282,242.886 C424.282,239.011 420.501,235.874 415.851,235.874 z" filter="url(#Shadow_7)" fill="rgba(0,0,0,0.65)"/>
        <path d="M415.851,249.899 C420.501,249.899 424.282,246.761 424.282,242.886 C424.282,239.011 420.501,235.874 415.851,235.874 C411.201,235.874 407.438,239.011 407.438,242.886 C407.438,246.761 411.201,249.899 415.851,249.899 M403.698,242.886 C403.698,237.308 409.13,232.773 415.851,232.773 C422.557,232.773 428,237.308 428,242.886 C428,248.468 422.56,253 415.851,253 C409.132,253 403.698,248.468 403.698,242.886" fill="url(#Gradient_7)"/>
      </g>
      <g>
        <path d="M403.26,219.529 C404.987,219.529 406.498,220.337 407.262,221.511 L413.17,231.331 L410.468,232.114 L404.905,222.688 C404.627,222.16 403.904,221.792 403.26,221.792 L399.391,221.807 C398.642,221.807 398.033,221.307 398.033,220.677 C398.033,220.043 398.642,219.529 399.391,219.529 L403.26,219.529 z" filter="url(#Shadow_8)" fill="rgba(0,0,0,0.65)"/>
        <path d="M413.17,231.331 L407.262,221.511 C406.498,220.337 404.987,219.529 403.26,219.529 L399.391,219.529 C398.642,219.529 398.033,220.043 398.033,220.677 C398.033,221.307 398.642,221.807 399.391,221.807 L403.26,221.792 C403.904,221.792 404.627,222.16 404.905,222.688 L410.468,232.114 L413.17,231.331 z" fill="url(#Gradient_8)"/>
      </g>
    </g>
  </g>
</svg>
